<!-- Generator: Adobe Illustrator 24.1.0, SVG Export Plug-In  -->
<svg version="1.1" xmlns="http://www.w3.org/2000/svg" xmlns:xlink="http://www.w3.org/1999/xlink" x="0px" y="0px" width="94.13px"
	 height="480.23px" viewBox="0 0 94.13 480.23" style="enable-background:new 0 0 94.13 480.23;" xml:space="preserve">
<style type="text/css">
	.st0{fill:url(#SVGID_1_);}
	.st1{fill:url(#SVGID_2_);}
	.st2{fill:#999999;}
	.st3{fill:#4D4D4D;}
	.st4{fill:#333333;}
	.st5{fill:#666666;}
	.st6{fill:#FFCE00;}
	.st7{fill:url(#SVGID_3_);}
	.st8{fill:url(#SVGID_4_);}
</style>
<defs>
</defs>
<linearGradient id="SVGID_1_" gradientUnits="userSpaceOnUse" x1="14.2434" y1="300.1227" x2="88.5433" y2="300.1227">
	<stop  offset="0" style="stop-color:#B3B3B3"/>
	<stop  offset="0.3" style="stop-color:#FFFFFF"/>
	<stop  offset="0.6" style="stop-color:#B3B3B3"/>
	<stop  offset="0.6494" style="stop-color:#AAAAAA"/>
	<stop  offset="0.7301" style="stop-color:#929292"/>
	<stop  offset="0.8319" style="stop-color:#6A6A6A"/>
	<stop  offset="0.9498" style="stop-color:#333333"/>
	<stop  offset="1" style="stop-color:#1A1A1A"/>
</linearGradient>
<path class="st0" d="M83.49,480.23h-66.4c-1.57,0-2.84-1.27-2.84-2.84V128.22c0-4.54,3.68-8.21,8.21-8.21h55.66
	c4.54,0,8.21,3.68,8.21,8.21V477.4C86.32,478.96,85.05,480.23,83.49,480.23z"/>
<linearGradient id="SVGID_2_" gradientUnits="userSpaceOnUse" x1="6.4338" y1="68.8757" x2="94.1337" y2="68.8757">
	<stop  offset="0" style="stop-color:#999999"/>
	<stop  offset="0.3" style="stop-color:#E6E6E6"/>
	<stop  offset="0.8" style="stop-color:#8C8A8B"/>
	<stop  offset="1" style="stop-color:#1A1A1A"/>
</linearGradient>
<path class="st1" d="M94.13,114.96v16.67c0,3.38-2.74,6.11-6.11,6.11H12.55c-3.38,0-6.11-2.74-6.11-6.11l0-129.69
	c0-1.12,0.95-2.03,2.08-1.95C23.48,1.07,35.3,13.56,35.3,28.81v25.12c0,12.54,3.92,24.16,10.61,33.71
	c10.25,14.65,27.02,24.41,46.09,25.09C93.19,112.78,94.13,113.77,94.13,114.96z"/>
<rect y="259.75" class="st2" width="18.52" height="56.53"/>
<rect x="9.94" y="147.75" class="st3" width="9.24" height="72"/>
<rect x="14.56" y="147.75" class="st4" width="4.62" height="72"/>
<rect x="24.18" y="147.75" class="st3" width="9.24" height="72"/>
<rect x="31.12" y="147.81" class="st4" width="2.31" height="72"/>
<rect x="24.18" y="147.81" class="st5" width="1.16" height="72"/>
<rect x="38.43" y="147.75" class="st3" width="9.24" height="72"/>
<rect x="45.36" y="147.81" class="st4" width="2.31" height="72"/>
<rect x="38.43" y="147.81" class="st5" width="2.31" height="72"/>
<rect x="52.67" y="147.75" class="st3" width="9.24" height="72"/>
<rect x="59.61" y="147.81" class="st4" width="2.31" height="72"/>
<rect x="52.67" y="147.81" class="st5" width="2.31" height="72"/>
<rect x="66.92" y="147.75" class="st3" width="9.24" height="72"/>
<rect x="75.01" y="147.81" class="st4" width="1.16" height="72"/>
<rect x="66.92" y="147.81" class="st5" width="2.31" height="72"/>
<rect x="81.38" y="147.75" class="st3" width="9.24" height="72"/>
<rect x="81.38" y="147.81" class="st5" width="4.62" height="72"/>
<rect x="46.68" y="391.23" transform="matrix(6.123234e-17 -1 1 6.123234e-17 -376.9494 477.5168)" class="st4" width="7.2" height="72"/>
<rect x="46.68" y="420.63" transform="matrix(6.123234e-17 -1 1 6.123234e-17 -413.5495 514.1169)" class="st6" width="7.2" height="86.4"/>
<rect x="46.68" y="403.43" transform="matrix(6.123234e-17 -1 1 6.123234e-17 -389.1494 489.7169)" class="st4" width="7.2" height="72"/>
<rect x="46.68" y="415.63" transform="matrix(6.123234e-17 -1 1 6.123234e-17 -401.3495 501.9169)" class="st4" width="7.2" height="72"/>
</svg>
