<!-- Generator: Adobe Illustrator 24.1.0, SVG Export Plug-In  -->
<svg version="1.1" xmlns="http://www.w3.org/2000/svg" xmlns:xlink="http://www.w3.org/1999/xlink" x="0px" y="0px" width="80.92px"
	 height="1084.75px" viewBox="0 0 80.92 1084.75" style="enable-background:new 0 0 80.92 1084.75;" xml:space="preserve">
<style type="text/css">
	.st0{fill:url(#SVGID_1_);}
	.st1{fill:url(#SVGID_2_);}
	.st2{fill:url(#SVGID_3_);}
	.st3{fill:url(#SVGID_4_);}
	.st4{fill:url(#SVGID_5_);}
	.st5{fill:url(#SVGID_6_);}
</style>
<defs>
</defs>
<g>
	<linearGradient id="SVGID_1_" gradientUnits="userSpaceOnUse" x1="0" y1="542.3747" x2="80.9185" y2="542.3747">
		<stop  offset="0" style="stop-color:#FF0000;stop-opacity:0.1"/>
		<stop  offset="0.2" style="stop-color:#FF0000;stop-opacity:0.7"/>
		<stop  offset="0.8" style="stop-color:#FF0000;stop-opacity:0.7"/>
		<stop  offset="1" style="stop-color:#FF0000;stop-opacity:0.1"/>
	</linearGradient>
	<path class="st0" d="M40.46,0L40.46,0C62.8,0,80.92,18.11,80.92,40.46v1044.29H0L0,40.46C0,18.11,18.11,0,40.46,0z"/>
	<g>
		<linearGradient id="SVGID_2_" gradientUnits="userSpaceOnUse" x1="11.4174" y1="544.6458" x2="69.5012" y2="544.6458">
			<stop  offset="0" style="stop-color:#FF0000"/>
			<stop  offset="0.5" style="stop-color:#FFE1E1"/>
			<stop  offset="1" style="stop-color:#FF0000"/>
		</linearGradient>
		<path class="st1" d="M40.46,4.54L40.46,4.54c16.04,0,29.04,13,29.04,29.04v1051.17H11.42V33.58C11.42,17.54,24.42,4.54,40.46,4.54
			z"/>
		<radialGradient id="SVGID_3_" cx="40.3807" cy="33.1719" r="29.1955" fx="40.3862" fy="33.8382" gradientUnits="userSpaceOnUse">
			<stop  offset="0" style="stop-color:#FFE1E1"/>
			<stop  offset="1" style="stop-color:#FF0000"/>
		</radialGradient>
		<path class="st2" d="M69.5,33.58H11.42c0-16.04,13-29.04,29.04-29.04C56.5,4.54,69.5,17.54,69.5,33.58z"/>
	</g>
</g>
</svg>
