<!-- Generator: Adobe Illustrator 24.1.0, SVG Export Plug-In  -->
<svg version="1.1" xmlns="http://www.w3.org/2000/svg" xmlns:xlink="http://www.w3.org/1999/xlink" x="0px" y="0px"
	 width="444.82px" height="279.72px" viewBox="0 0 444.82 279.72" style="enable-background:new 0 0 444.82 279.72;"
	 xml:space="preserve">
<style type="text/css">
	.st0{fill:#1E1E1E;stroke:#000000;stroke-miterlimit:10;}
	.st1{fill:url(#SVGID_1_);stroke:#000000;stroke-miterlimit:10;}
	.st2{fill:url(#SVGID_2_);stroke:#000000;stroke-miterlimit:10;}
	.st3{fill:url(#SVGID_3_);stroke:#000000;stroke-miterlimit:10;}
	.st4{fill:#4C4C4C;stroke:#000000;stroke-miterlimit:10;}
	.st5{stroke:#000000;stroke-miterlimit:10;}
	.st6{fill:url(#SVGID_4_);stroke:#000000;stroke-miterlimit:10;}
	.st7{fill:url(#SVGID_5_);stroke:#000000;stroke-miterlimit:10;}
	.st8{fill:url(#SVGID_6_);stroke:#000000;stroke-miterlimit:10;}
</style>
<defs>
</defs>
<g>
	<g>
		<path class="st0" d="M125.74,233.17c0,0-28.09-13.08-36.37-31.41c-1.6-3.55-2.66-7.74-3.31-12.27
			c-2.72-18.86,1.64-43.6,3.31-52.19c0.18-0.93,0.34-2,0.5-3.17c1.68-12.23,4.23-35.94,47.4-36.74
			c36.84-0.69,103.8-8.02,144.89-17.37c11.68-2.66,21.27-5.48,27.48-8.36c0,0,10.93-5.55,17.02-12.76c1.74-2.05,3.09-4.23,3.68-6.46
			c0,0,5.62-5.02,10.05,3.26C344.83,63.98,355.47,103.74,125.74,233.17z"/>
		<linearGradient id="SVGID_1_" gradientUnits="userSpaceOnUse" x1="187.8237" y1="267.7312" x2="302.6147" y2="21.561">
			<stop  offset="0.3244" style="stop-color:#999999"/>
			<stop  offset="0.3364" style="stop-color:#9F9F9F"/>
			<stop  offset="0.3519" style="stop-color:#AFAFAF"/>
			<stop  offset="0.3693" style="stop-color:#C9C9C9"/>
			<stop  offset="0.3881" style="stop-color:#EEEEEE"/>
			<stop  offset="0.3956" style="stop-color:#FFFFFF"/>
			<stop  offset="0.4231" style="stop-color:#E8E8E8"/>
			<stop  offset="0.4807" style="stop-color:#ADADAD"/>
			<stop  offset="0.4991" style="stop-color:#999999"/>
		</linearGradient>
		<path class="st1" d="M182.94,265.45c0,0-45.08-25.41-57.2-32.28s-17.3-29.05-18.41-39.69c-1.11-10.64-2.88-44.35-1.4-57.95
			c1.48-13.6,16.26-23.65,39.62-27.5c23.36-3.84,49.08-3.25,59.43-3.84c10.35-0.59,80.13-6.21,117.38-27.2
			c0,0,17.15-6.21,18.04-21.29c0,0,56.18,8.28,78.35,20.11S202.88,267.06,182.94,265.45z"/>
		<linearGradient id="SVGID_2_" gradientUnits="userSpaceOnUse" x1="229.5126" y1="288.0533" x2="344.6092" y2="41.2278">
			<stop  offset="0.3244" style="stop-color:#262626"/>
			<stop  offset="0.3319" style="stop-color:#2C2C2C"/>
			<stop  offset="0.3417" style="stop-color:#3C3C3C"/>
			<stop  offset="0.3527" style="stop-color:#575757"/>
			<stop  offset="0.3646" style="stop-color:#7C7C7C"/>
			<stop  offset="0.3772" style="stop-color:#ACACAC"/>
			<stop  offset="0.3902" style="stop-color:#E5E5E5"/>
			<stop  offset="0.3956" style="stop-color:#FFFFFF"/>
			<stop  offset="0.4097" style="stop-color:#E8E8E8"/>
			<stop  offset="0.4395" style="stop-color:#ACACAC"/>
			<stop  offset="0.482" style="stop-color:#4E4E4E"/>
			<stop  offset="0.4991" style="stop-color:#262626"/>
		</linearGradient>
		<path class="st2" d="M214.51,130.5c0,0-42.35,2.37-47.38,48.19c-5.03,45.83,0.89,56.18,1.48,61.2s6.93,24.24,21.21,29.57
			c14.27,5.32,32.04,8.22,32.04,8.22l217.03-187.3c0,0-9.79-9.25-20.14-14.58c0,0-3.84-2.37-17.74,5.32
			c-13.9,7.69-47.31,18.33-49.97,20.11C348.38,103,276.97,122.52,214.51,130.5z"/>
		<linearGradient id="SVGID_3_" gradientUnits="userSpaceOnUse" x1="260.7515" y1="114.7502" x2="388.5445" y2="242.5432">
			<stop  offset="0" style="stop-color:#FFFFFF"/>
			<stop  offset="0.0415" style="stop-color:#D8D8D8"/>
			<stop  offset="0.1019" style="stop-color:#A6A6A6"/>
			<stop  offset="0.1652" style="stop-color:#797979"/>
			<stop  offset="0.2303" style="stop-color:#545454"/>
			<stop  offset="0.2979" style="stop-color:#353535"/>
			<stop  offset="0.3684" style="stop-color:#1E1E1E"/>
			<stop  offset="0.4434" style="stop-color:#0D0D0D"/>
			<stop  offset="0.5258" style="stop-color:#030303"/>
			<stop  offset="0.6301" style="stop-color:#000000"/>
		</linearGradient>
		<path class="st3" d="M414.31,90.73c0,0-105.11,34.45-159.81,45.53c0,0-49.38-2.22-45.24,80.13c0,0,0.88,38.58,5.25,50.26
			c4.36,11.68,5.69,14.19,30.83,11.68s136.01-45.17,136.01-45.17s33.85-12.19,47.01-31.56s15.74-66.53,15.74-66.53
			s1.26-30.16-2.29-40.51C438.26,84.23,422.07,88.22,414.31,90.73z"/>
	</g>
	<g>
		<path class="st4" d="M133.72,155.93v55.58c-16.65-5.38-32.97-13.4-47.66-22.02c-34.62-20.31-60.26-43.91-60.26-43.91
			C-10.86,84.67,3.11,44.17,3.11,44.17c-4,24.48,15.9,39.77,16.47,40.2c0.01,0.01,0.01,0.01,0.01,0.01
			c18.9,19.18,46.8,36.8,70.28,49.75C114.16,147.53,133.72,155.93,133.72,155.93z"/>
		<path class="st5" d="M326.66,58.9c-6.09,7.21-17.02,12.76-17.02,12.76c-6.21,2.88-15.8,5.7-27.48,8.36
			C188.75,40.77,124.26,43.57,89.67,48.6c-34.6,5.03-70.08,35.78-70.08,35.78s0,0-0.01-0.01c-0.57-0.43-20.47-15.72-16.47-40.2
			c0,0,10.57-31.35,83.89-41.4C160.33-7.28,256.16,16.89,326.66,58.9z"/>
	</g>
</g>
</svg>
